<?xml version="1.0" encoding="UTF-8"?>
<svg width="153px" height="174px" viewBox="0 0 153 174" version="1.1" xmlns="http://www.w3.org/2000/svg" xmlns:xlink="http://www.w3.org/1999/xlink">
    <title>Group 144</title>
    <defs>
        <path d="M26.2343686,0.202303332 C26.6303686,0.520303332 26.6953686,1.09830333 26.3773686,1.49430333 C26.2943686,1.59930333 17.8803686,12.2583033 10.9843686,32.9553033 C6.9343686,45.1123033 4.1913686,58.3023033 2.8353686,72.1613033 C1.1373686,89.4893033 1.6113686,107.918303 4.2433686,126.934303 C4.3123686,127.437303 3.9613686,127.901303 3.4583686,127.971303 C3.4153686,127.976303 3.3723686,127.979303 3.3293686,127.979303 C2.8783686,127.979303 2.4843686,127.646303 2.4213686,127.186303 C-0.234631398,108.000303 -0.707631398,89.4003033 1.0123686,71.9063033 C2.3903686,57.8993033 5.1693686,44.5643033 9.2743686,32.2723033 C16.2773686,11.2973033 24.5913686,0.782303332 24.9423686,0.344303332" id="path-1"></path>
        <linearGradient x1="-0.000244542129%" y1="50.0001134%" x2="99.9987135%" y2="50.0001134%" id="linearGradient-3">
            <stop stop-color="#5454D3" offset="0%"></stop>
            <stop stop-color="#7570ED" offset="100%"></stop>
        </linearGradient>
        <path d="M8.51580273,0.458993783 C8.76780273,-0.347006217 10.0378027,-0.00300621741 9.78280273,0.806993783 C8.65680273,4.39799378 7.76380273,8.07299378 6.92380273,11.7369938 C2.63680273,30.4209938 0.359802734,49.8819938 1.76180273,69.0469938 C2.59680273,80.4299938 4.75180273,91.8989938 9.27380273,102.430994 C10.3868027,105.022994 11.6208027,107.565994 13.0198027,110.017994 C14.4178027,112.465994 15.8868027,115.238994 17.9038027,117.231994 C22.3038027,121.578994 28.0278027,124.136994 33.9848027,125.568994 C40.1648027,127.053994 46.5268027,127.526994 52.8598027,127.774994 C59.1838027,128.020994 65.5648027,128.399994 71.8898027,128.138994 C78.6708027,127.858994 85.4958027,126.886994 91.8898027,124.524994 C98.4138027,122.112994 104.244803,118.330994 109.015803,113.258994 C109.596803,112.640994 110.523803,113.570994 109.944803,114.186994 C104.110803,120.388994 96.6578027,124.729994 88.4678027,127.005994 C80.1598027,129.316994 71.5108027,129.742994 62.9338027,129.416994 C61.6747402,129.369181 60.4082993,129.3307 59.1368353,129.294715 L57.6088183,129.252293 C47.1529538,128.964617 36.4226986,128.66089 26.7168027,124.571994 C24.1038027,123.469994 21.6058027,122.062994 19.3818027,120.294994 C17.0678027,118.452994 15.3938027,116.355994 13.8138027,113.874994 C10.8078027,109.157994 8.35980273,104.093994 6.45280273,98.8359938 C-1.03319727,78.2039938 -1.08319727,55.3209938 1.67180273,33.7869938" id="path-4"></path>
        <linearGradient x1="-0.000179123888%" y1="49.9998594%" x2="100.000054%" y2="49.9998594%" id="linearGradient-6">
            <stop stop-color="#5454D3" offset="0%"></stop>
            <stop stop-color="#7570ED" offset="100%"></stop>
        </linearGradient>
        <path d="M93.5307556,0.227454021 C94.0557556,-0.436545979 94.9797556,0.500454021 94.4597556,1.15645402 C90.5277556,6.14245402 85.9607556,10.619454 81.0827556,14.675454 C75.4047556,19.397454 69.3237556,23.671454 62.8907556,27.304454 C55.9347556,31.230454 48.9717556,35.191454 41.8847556,38.875454 C35.3147556,42.290454 28.5317556,45.386454 21.5187556,47.780454 C14.8677556,50.049454 7.69275563,51.857454 0.624755627,50.934454 C-0.203244373,50.826454 -0.213244373,49.512454 0.624755627,49.621454 C5.94875563,50.316454 11.3477556,49.425454 16.4787556,47.979454 C28.2727068,44.6553565 39.0956551,38.9902524 49.7629849,33.0836975 L51.7614847,31.9739016 L51.7614847,31.9739016 L53.7575316,30.8615222 C54.090068,30.6760812 54.422552,30.4906607 54.7550084,30.3053248 L56.7496155,29.1948367 C57.414507,28.8253541 58.0794873,28.4567223 58.7447556,28.089454" id="path-7"></path>
        <linearGradient x1="-0.000249090347%" y1="50.0004563%" x2="100.00018%" y2="50.0004563%" id="linearGradient-9">
            <stop stop-color="#5454D3" offset="0%"></stop>
            <stop stop-color="#7570ED" offset="100%"></stop>
        </linearGradient>
        <path d="M51.3859523,0.182694323 C52.0029523,-0.395305677 52.9339523,0.531694323 52.3149523,1.11169432 C46.3159523,6.72469432 41.4669523,13.5026943 37.4489523,20.6426943 C33.5049523,27.6506943 30.4749523,35.1166943 27.2079523,42.4526943 C25.4669523,46.3586943 23.7239523,50.2616943 21.9879523,54.1686943 C20.2319523,58.1156943 18.3389523,62.0366943 16.7629523,66.0586943 C11.0719523,80.6046943 7.43495234,95.8916943 1.19595234,110.229694 C0.858952339,111.003694 -0.273047661,110.335694 0.0609523387,109.566694 C3.59895234,101.438694 6.26395234,92.9666943 8.98095234,84.5396943 C11.3869523,77.0726943 13.7589523,69.5566943 16.9269523,62.3706943 C20.3689523,54.5636943 23.8579523,46.7776943 27.3229523,38.9796943 C27.6808412,38.1745832 28.0365696,37.3686573 28.3918275,36.5626971 L29.4578796,34.145494 C31.9499276,28.5087561 34.5017301,22.9085832 37.6929523,17.6126943" id="path-10"></path>
        <linearGradient x1="-0.000621799301%" y1="50.0000768%" x2="99.9995331%" y2="50.0000768%" id="linearGradient-12">
            <stop stop-color="#5454D3" offset="0%"></stop>
            <stop stop-color="#7570ED" offset="100%"></stop>
        </linearGradient>
        <path d="M76.3218844,0.318893159 C76.7438844,-0.413106841 77.8808844,0.245893159 77.4548844,0.981893159 C73.3208844,8.14589316 69.0738844,15.2268932 64.1168844,21.8598932 C59.3278844,28.2688932 54.0218844,34.3778932 48.5788844,40.2378932 C43.4458844,45.7648932 37.9088844,50.8428932 32.5628844,56.1528932 C31.2434458,57.4634897 29.9215055,58.8011517 28.5882746,60.1450032 L27.5860971,61.1537261 C27.4186689,61.3219313 27.2510299,61.4901517 27.0831631,61.6583464 L26.0730897,62.6668813 C18.6438142,70.0557657 10.7068317,77.2371914 0.799884364,80.7378932 C-0.00111563603,81.0198932 -0.343115636,79.7498932 0.450884364,79.4708932 C6.57288436,77.3068932 11.9968844,73.5328932 16.9008844,69.3418932 C22.1808844,64.8298932 26.9868844,59.8188932 31.9198844,54.9408932 C37.2978844,49.6208932 42.8478844,44.5198932 47.9798844,38.9508932 C53.5418844,32.9148932 59.0088844,26.6528932 63.8558844,20.0208932" id="path-13"></path>
        <linearGradient x1="0.000175198001%" y1="50.0000143%" x2="100.000027%" y2="50.0000143%" id="linearGradient-15">
            <stop stop-color="#5454D3" offset="0%"></stop>
            <stop stop-color="#7570ED" offset="100%"></stop>
        </linearGradient>
        <path d="M100.094712,0.344098218 C100.432712,-0.429901782 101.564712,0.238098218 101.228712,1.00709822 C97.6377124,9.20809822 90.1977124,15.3650982 82.9347124,20.2510982 C71.2287124,28.1280982 57.7137124,33.6990982 43.5157124,34.6270982 C35.8807124,35.1250982 28.2067124,34.5980982 20.6567124,33.4410982 C13.7027124,32.3770982 7.00771235,29.8520982 0.445712354,27.4070982 C-0.340287646,27.1130982 3.55271368e-15,25.8440982 0.794712354,26.1400982 C8.76371235,29.1090982 16.7527124,31.8120982 25.2417124,32.7890982 C32.8967124,33.6690982 40.9047124,33.9450982 48.5417124,32.7550982 C56.0507124,31.5850982 63.4647124,29.3390982 70.3237124,26.0560982 C76.3477124,23.1720982 82.1747124,19.5490982 87.3947124,15.3800982" id="path-16"></path>
        <linearGradient x1="-0.000277564545%" y1="49.99986%" x2="100.000083%" y2="49.99986%" id="linearGradient-18">
            <stop stop-color="#5454D3" offset="0%"></stop>
            <stop stop-color="#7570ED" offset="100%"></stop>
        </linearGradient>
        <path d="M1.70240075,3.609 C0.466400747,5.032 0.277400747,7.69 0.0884007475,9.399 L0.0884007475,9.399 C-0.290599253,15.19 0.466400747,21.076 3.98040075,25.822 L3.98040075,25.822 C4.64440075,26.772 6.06940075,28.385 7.49240075,27.911 L7.49240075,27.911 C9.01240075,27.341 7.68540075,26.259 7.11440075,23.259 L7.11440075,23.259 C6.41140075,19.579 5.95140075,15.474 6.52040075,11.772 L6.52040075,11.772 C6.99540075,8.545 7.68340075,5.032 9.10740075,2.09 L9.10740075,2.09 L7.77840075,0 C5.97440075,0.95 3.12640075,2.09 1.70240075,3.609" id="path-19"></path>
        <linearGradient x1="-0.00831579219%" y1="50.0009408%" x2="100.000011%" y2="50.0009408%" id="linearGradient-21">
            <stop stop-color="#5454D3" offset="0%"></stop>
            <stop stop-color="#7570ED" offset="100%"></stop>
        </linearGradient>
        <path d="M0.103493064,3.133 C-0.466506936,4.936 1.44749306,8.104 2.68149306,9.338 L2.68149306,9.338 C6.57349306,13.421 12.1604931,14.715 17.6674931,14.336 L17.6674931,14.336 C19.4704931,14.24 21.3164931,12.396 20.1534931,11.812 L20.1534931,11.812 C17.9034931,10.689 13.0134931,9.304 10.2624931,7.121 L10.2624931,7.121 C8.55449306,5.791 7.41449306,4.083 5.89449306,2.564 L5.89449306,2.564 C4.94549306,1.614 3.90049306,1.425 2.57249306,0.855 L2.57249306,0.855 L2.57249306,0 C1.80849306,0.165 0.482493064,1.899 0.103493064,3.133" id="path-22"></path>
        <linearGradient x1="0.00173694462%" y1="50.0013451%" x2="99.9999966%" y2="50.0013451%" id="linearGradient-24">
            <stop stop-color="#5454D3" offset="0%"></stop>
            <stop stop-color="#7570ED" offset="100%"></stop>
        </linearGradient>
    </defs>
    <g id="Page-1" stroke="none" stroke-width="1" fill="none" fill-rule="evenodd">
        <g id="ESTRATEGIA" transform="translate(-74.000000, -795.000000)">
            <g id="Group-144" transform="translate(74.000000, 795.686411)">
                <g id="Group-42">
                    <path d="M135.111903,169.873189 C135.111903,171.325189 124.180903,172.500189 110.697903,172.500189 C97.2139027,172.500189 86.2829027,171.325189 86.2829027,169.873189 C86.2829027,168.422189 97.2139027,167.246189 110.697903,167.246189 C124.180903,167.246189 135.111903,168.422189 135.111903,169.873189" id="Fill-5" fill="#4FA4D3"></path>
                    <path d="M85.3560027,161.930589 C85.3560027,163.892589 70.2740027,165.483589 51.6700027,165.483589 C33.0650027,165.483589 17.9840027,163.892589 17.9840027,161.930589 C17.9840027,159.968589 33.0650027,158.375589 51.6700027,158.375589 C70.2740027,158.375589 85.3560027,159.968589 85.3560027,161.930589" id="Fill-7" fill="#4FA4D3"></path>
                    <g id="Group-27" transform="translate(0.000000, 2.057085)">
                        <g id="Group-11" transform="translate(13.356434, 0.000000)">
                            <mask id="mask-2" fill="white">
                                <use xlink:href="#path-1"></use>
                            </mask>
                            <g id="Clip-10"></g>
                            <path d="M3.3293686,127.979303 C2.8783686,127.979303 2.4843686,127.646303 2.4213686,127.186303 C-0.234631398,108.000303 -0.707631398,89.4003033 1.0123686,71.9063033 C2.3903686,57.8993033 5.1693686,44.5643033 9.2743686,32.2723033 C16.2773686,11.2973033 24.5913686,0.782303332 24.9423686,0.344303332 C25.2603686,-0.0516966683 25.8373686,-0.115696668 26.2343686,0.202303332 C26.6303686,0.520303332 26.6953686,1.09830333 26.3773686,1.49430333 C26.2943686,1.59930333 17.8803686,12.2583033 10.9843686,32.9553033 C6.9343686,45.1123033 4.1913686,58.3023033 2.8353686,72.1613033 C1.1373686,89.4893033 1.6113686,107.918303 4.2433686,126.934303 C4.3123686,127.437303 3.9613686,127.901303 3.4583686,127.971303 C3.4153686,127.976303 3.3723686,127.979303 3.3293686,127.979303" id="Fill-9" fill="url(#linearGradient-3)" mask="url(#mask-2)"></path>
                        </g>
                        <g id="Group-14" transform="translate(0.000000, 10.147310)">
                            <mask id="mask-5" fill="white">
                                <use xlink:href="#path-4"></use>
                            </mask>
                            <g id="Clip-13"></g>
                            <path d="M8.51580273,0.458993783 C5.13180273,11.2489938 3.10180273,22.5949938 1.67180273,33.7869938 C-1.08319727,55.3209938 -1.03319727,78.2039938 6.45280273,98.8359938 C8.35980273,104.093994 10.8078027,109.157994 13.8138027,113.874994 C15.3938027,116.355994 17.0678027,118.452994 19.3818027,120.294994 C21.6058027,122.062994 24.1038027,123.469994 26.7168027,124.571994 C38.0798027,129.358994 50.8468027,128.957994 62.9338027,129.416994 C71.5108027,129.742994 80.1598027,129.316994 88.4678027,127.005994 C96.6578027,124.729994 104.110803,120.388994 109.944803,114.186994 C110.523803,113.570994 109.596803,112.640994 109.015803,113.258994 C104.244803,118.330994 98.4138027,122.112994 91.8898027,124.524994 C85.4958027,126.886994 78.6708027,127.858994 71.8898027,128.138994 C65.5648027,128.399994 59.1838027,128.020994 52.8598027,127.774994 C46.5268027,127.526994 40.1648027,127.053994 33.9848027,125.568994 C28.0278027,124.136994 22.3038027,121.578994 17.9038027,117.231994 C15.8868027,115.238994 14.4178027,112.465994 13.0198027,110.017994 C11.6208027,107.565994 10.3868027,105.022994 9.27380273,102.430994 C4.75180273,91.8989938 2.59680273,80.4299938 1.76180273,69.0469938 C0.359802734,49.8819938 2.63680273,30.4209938 6.92380273,11.7369938 C7.76380273,8.07299378 8.65680273,4.39799378 9.78280273,0.806993783 C10.0378027,-0.00300621741 8.76780273,-0.347006217 8.51580273,0.458993783" id="Fill-12" fill="url(#linearGradient-6)" mask="url(#mask-5)"></path>
                        </g>
                        <g id="Group-17" transform="translate(16.064047, 76.781849)">
                            <mask id="mask-8" fill="white">
                                <use xlink:href="#path-7"></use>
                            </mask>
                            <g id="Clip-16"></g>
                            <path d="M0.624755627,50.934454 C7.69275563,51.857454 14.8677556,50.049454 21.5187556,47.780454 C28.5317556,45.386454 35.3147556,42.290454 41.8847556,38.875454 C48.9717556,35.191454 55.9347556,31.230454 62.8907556,27.304454 C69.3237556,23.671454 75.4047556,19.397454 81.0827556,14.675454 C85.9607556,10.619454 90.5277556,6.14245402 94.4597556,1.15645402 C94.9797556,0.500454021 94.0557556,-0.436545979 93.5307556,0.227454021 C84.2307556,12.017454 71.7857556,20.890454 58.7447556,28.089454 C45.1067556,35.618454 31.5897556,43.720454 16.4787556,47.979454 C11.3477556,49.425454 5.94875563,50.316454 0.624755627,49.621454 C-0.213244373,49.512454 -0.203244373,50.826454 0.624755627,50.934454" id="Fill-15" fill="url(#linearGradient-9)" mask="url(#mask-8)"></path>
                        </g>
                        <g id="Group-20" transform="translate(16.163850, 17.092609)">
                            <mask id="mask-11" fill="white">
                                <use xlink:href="#path-10"></use>
                            </mask>
                            <g id="Clip-19"></g>
                            <path d="M51.3859523,0.182694323 C45.9669523,5.25369432 41.5139523,11.2716943 37.6929523,17.6126943 C33.5899523,24.4216943 30.5439523,31.7336943 27.3229523,38.9796943 C23.8579523,46.7776943 20.3689523,54.5636943 16.9269523,62.3706943 C13.7589523,69.5566943 11.3869523,77.0726943 8.98095234,84.5396943 C6.26395234,92.9666943 3.59895234,101.438694 0.0609523387,109.566694 C-0.273047661,110.335694 0.858952339,111.003694 1.19595234,110.229694 C7.43495234,95.8916943 11.0719523,80.6046943 16.7629523,66.0586943 C18.3389523,62.0366943 20.2319523,58.1156943 21.9879523,54.1686943 C23.7239523,50.2616943 25.4669523,46.3586943 27.2079523,42.4526943 C30.4749523,35.1166943 33.5049523,27.6506943 37.4489523,20.6426943 C41.4669523,13.5026943 46.3159523,6.72469432 52.3149523,1.11169432 C52.9339523,0.531694323 52.0029523,-0.395305677 51.3859523,0.182694323" id="Fill-18" fill="url(#linearGradient-12)" mask="url(#mask-11)"></path>
                        </g>
                        <g id="Group-23" transform="translate(16.062918, 46.956410)">
                            <mask id="mask-14" fill="white">
                                <use xlink:href="#path-13"></use>
                            </mask>
                            <g id="Clip-22"></g>
                            <path d="M0.799884364,80.7378932 C13.6338844,76.2028932 23.1618844,65.4908932 32.5628844,56.1528932 C37.9088844,50.8428932 43.4458844,45.7648932 48.5788844,40.2378932 C54.0218844,34.3778932 59.3278844,28.2688932 64.1168844,21.8598932 C69.0738844,15.2268932 73.3208844,8.14589316 77.4548844,0.981893159 C77.8808844,0.245893159 76.7438844,-0.413106841 76.3218844,0.318893159 C72.4318844,7.05789316 68.4518844,13.7328932 63.8558844,20.0208932 C59.0088844,26.6528932 53.5418844,32.9148932 47.9798844,38.9508932 C42.8478844,44.5198932 37.2978844,49.6208932 31.9198844,54.9408932 C26.9868844,59.8188932 22.1808844,64.8298932 16.9008844,69.3418932 C11.9968844,73.5328932 6.57288436,77.3068932 0.450884364,79.4708932 C-0.343115636,79.7498932 -0.00111563603,81.0198932 0.799884364,80.7378932" id="Fill-21" fill="url(#linearGradient-15)" mask="url(#mask-14)"></path>
                        </g>
                        <g id="Group-26" transform="translate(16.068090, 100.287205)">
                            <mask id="mask-17" fill="white">
                                <use xlink:href="#path-16"></use>
                            </mask>
                            <g id="Clip-25"></g>
                            <path d="M0.445712354,27.4070982 C7.00771235,29.8520982 13.7027124,32.3770982 20.6567124,33.4410982 C28.2067124,34.5980982 35.8807124,35.1250982 43.5157124,34.6270982 C57.7137124,33.6990982 71.2287124,28.1280982 82.9347124,20.2510982 C90.1977124,15.3650982 97.6377124,9.20809822 101.228712,1.00709822 C101.564712,0.238098218 100.432712,-0.429901782 100.094712,0.344098218 C97.4197124,6.45209822 92.5327124,11.2790982 87.3947124,15.3800982 C82.1747124,19.5490982 76.3477124,23.1720982 70.3237124,26.0560982 C63.4647124,29.3390982 56.0507124,31.5850982 48.5417124,32.7550982 C40.9047124,33.9450982 32.8967124,33.6690982 25.2417124,32.7890982 C16.7527124,31.8120982 8.76371235,29.1090982 0.794712354,26.1400982 C3.55271368e-15,25.8440982 -0.340287646,27.1130982 0.445712354,27.4070982" id="Fill-24" fill="url(#linearGradient-18)" mask="url(#mask-17)"></path>
                        </g>
                    </g>
                    <path d="M20.1090027,1.13108868 C10.2820027,4.93208868 6.40400273,14.9720887 5.32100273,24.7440887 C4.12000273,35.5800887 6.14700273,46.6090887 9.87500273,56.7750887 C15.1440027,71.1420887 23.7190027,84.2150887 33.5100027,95.8930887 C42.8280027,107.008089 54.0870027,116.803089 67.0800027,123.379089 C73.0120027,126.381089 79.2780027,128.493089 85.7890027,129.811089 C91.3160027,130.930089 97.0300027,131.507089 102.624003,130.556089 C108.114003,129.624089 112.918003,126.680089 115.936003,121.967089 C119.312003,116.694089 119.332003,109.854089 118.621003,103.852089 C117.833003,97.2150887 115.916003,90.8540887 113.606003,84.6060887 C110.875003,77.2130887 107.622003,70.0150887 103.896003,63.0710887 C96.5780027,49.4370887 86.6370027,37.0140887 75.8170027,26.0010887 C71.3090027,21.4130887 66.5380027,17.0810887 61.5260027,13.0480887 C57.5130027,9.81608868 53.5340027,6.55108868 48.8530027,4.31908868 C40.0350027,0.11408868 29.6430027,-1.17091132 20.1090027,1.13108868 C18.4630027,1.52808868 19.1610027,4.06108868 20.8080027,3.66308868 C31.9980027,0.96308868 44.1610027,3.58908868 53.5270027,10.1280887 C59.4980027,14.2950887 65.0610027,19.2440887 70.3190027,24.2660887 C75.9560027,29.6530887 81.2120027,35.4360887 86.1170027,41.4970887 C90.9840027,47.5140887 95.6540027,53.8670887 99.5110027,60.5850887 C103.492003,67.5220887 106.950003,74.7530887 109.886003,82.1920887 C112.401003,88.5740887 114.576003,95.0630887 115.704003,101.846089 C116.702003,107.857089 117.069003,114.894089 113.856003,120.334089 C107.703003,130.749089 93.5480027,128.969089 83.5800027,126.643089 C69.4610027,123.347089 56.9380027,115.295089 46.3530027,105.583089 C35.3690027,95.5080887 26.0950027,83.2480887 18.9210027,70.2080887 C12.6550027,58.8210887 8.09300273,46.1960887 7.65300273,33.1070887 C7.29200273,22.3890887 9.39000273,8.08008868 20.8080027,3.66308868 C22.3700027,3.05908868 21.6910027,0.51808868 20.1090027,1.13108868" id="Fill-28" fill="#728CD6"></path>
                    <path d="M102.608703,145.189489 C101.035703,149.513489 101.262703,154.382489 102.166703,158.834489 C102.891703,162.398489 104.465703,166.210489 107.363703,168.542489 C108.018703,169.067489 108.951703,168.144489 108.293703,167.613489 C105.522703,165.384489 104.173703,161.865489 103.434703,158.485489 C102.518703,154.302489 102.398703,149.597489 103.874703,145.538489 C104.165703,144.741489 102.895703,144.400489 102.608703,145.189489" id="Fill-30" fill="#7671EE"></path>
                    <path d="M114.587003,161.106489 C116.248003,165.065489 119.701003,167.707489 123.411003,169.488489 C126.381003,170.912489 130.188003,171.710489 134.052003,170.436489 C134.920003,170.148489 135.041003,168.758489 134.161003,169.048489 C130.470003,170.266489 127.036003,169.435489 124.177003,168.130489 C120.641003,166.517489 117.383003,163.875489 115.824003,160.157489 C115.517003,159.427489 114.284003,160.383489 114.587003,161.106489" id="Fill-32" fill="#7671EE"></path>
                    <path d="M132.659603,100.488789 C121.306603,105.132789 108.159603,109.736789 95.0696027,110.455789 L93.6276027,118.142789 C99.5636027,118.659789 106.705603,115.864789 112.123603,114.059789 C119.605603,111.479789 127.255603,109.126789 134.220603,105.772789 C136.026603,104.998789 145.949603,100.390789 148.012603,102.454789 C153.172603,107.098789 120.459603,131.800789 116.109603,135.419789 C113.973603,137.196789 111.904603,138.619789 110.633603,139.917789 C111.661603,141.179789 112.387603,142.625789 113.092603,144.087789 C114.832603,143.215789 116.899603,141.505789 117.399603,140.838789 C121.918603,137.417789 126.364603,134.003789 130.492603,130.133789 C136.685603,123.941789 142.446603,118.365789 148.379603,112.431789 C151.219603,109.593789 153.279603,106.060789 152.714603,102.197789 C151.514603,93.9917887 137.304603,98.4247887 132.659603,100.488789" id="Fill-34" fill="#051C80"></path>
                    <path d="M91.5865027,129.250389 C99.0695027,129.250389 103.372503,126.684389 110.082503,123.845389 C115.241503,121.781389 124.839503,115.648389 130.258503,114.359389 C134.101503,113.637389 125.213503,135.735389 121.786503,144.927389 C120.035503,149.621389 118.488503,153.629389 116.807503,158.194389 C118.921503,159.421389 118.081503,163.271389 120.530503,159.275389 C130.016503,143.781389 136.332503,118.041389 136.141503,112.916389 C135.885503,103.628389 124.974503,110.034389 118.248503,112.437389 C111.072503,114.999389 104.076503,117.480389 94.4355027,118.093389" id="Fill-36" fill="#051C80"></path>
                    <path d="M60.5764027,100.180189 C71.2264027,104.375189 80.2624027,105.021189 91.5574027,105.021189 C95.7514027,105.021189 119.310403,104.698189 116.082403,96.6301887 C102.852403,99.5351887 89.6204027,101.794189 75.7444027,99.5351887 C72.1944027,98.8901887 58.6404027,93.0801887 58.6404027,98.5661887" id="Fill-38" fill="#006FFF"></path>
                    <path d="M55.4757027,98.2260887 C58.0557027,111.643089 74.8267027,122.480089 86.1797027,127.639089 C88.2437027,128.673089 91.5977027,130.220089 93.6617027,128.673089 C95.4687027,127.382089 98.1087027,117.065089 98.1087027,114.434089 C98.1087027,105.161089 93.8927027,109.713089 79.4717027,105.966089 C73.4667027,104.407089 61.9247027,101.322089 58.8287027,94.8720887" id="Fill-40" fill="#006FFF"></path>
                </g>
                <g id="Group-45" transform="translate(102.399402, 140.726389)">
                    <mask id="mask-20" fill="white">
                        <use xlink:href="#path-19"></use>
                    </mask>
                    <g id="Clip-44"></g>
                    <path d="M1.70240075,3.609 C0.466400747,5.032 0.277400747,7.69 0.0884007475,9.399 L0.0884007475,9.399 C-0.290599253,15.19 0.466400747,21.076 3.98040075,25.822 L3.98040075,25.822 C4.64440075,26.772 6.06940075,28.385 7.49240075,27.911 L7.49240075,27.911 C9.01240075,27.341 7.68540075,26.259 7.11440075,23.259 L7.11440075,23.259 C6.41140075,19.579 5.95140075,15.474 6.52040075,11.772 L6.52040075,11.772 C6.99540075,8.545 7.68340075,5.032 9.10740075,2.09 L9.10740075,2.09 L7.77840075,0 C5.97440075,0.95 3.12640075,2.09 1.70240075,3.609" id="Fill-43" fill="url(#linearGradient-21)" mask="url(#mask-20)"></path>
                </g>
                <g id="Group-48" transform="translate(115.484310, 155.536389)">
                    <mask id="mask-23" fill="white">
                        <use xlink:href="#path-22"></use>
                    </mask>
                    <g id="Clip-47"></g>
                    <path d="M0.103493064,3.133 C-0.466506936,4.936 1.44749306,8.104 2.68149306,9.338 L2.68149306,9.338 C6.57349306,13.421 12.1604931,14.715 17.6674931,14.336 L17.6674931,14.336 C19.4704931,14.24 21.3164931,12.396 20.1534931,11.812 L20.1534931,11.812 C17.9034931,10.689 13.0134931,9.304 10.2624931,7.121 L10.2624931,7.121 C8.55449306,5.791 7.41449306,4.083 5.89449306,2.564 L5.89449306,2.564 C4.94549306,1.614 3.90049306,1.425 2.57249306,0.855 L2.57249306,0.855 L2.57249306,0 C1.80849306,0.165 0.482493064,1.899 0.103493064,3.133" id="Fill-46" fill="url(#linearGradient-24)" mask="url(#mask-23)"></path>
                </g>
                <g id="Group-143" transform="translate(1.892445, 6.708458)">
                    <path d="M106.778858,149.959231 C105.607858,150.212231 104.372858,150.829231 103.661858,151.236231 C103.006858,151.611231 102.072858,152.125231 101.247858,152.751231 C101.856858,155.273231 102.885858,157.675231 104.487858,159.840231 C105.151858,160.790231 106.575858,162.403231 107.999858,161.929231 C109.518858,161.359231 108.192858,160.277231 107.620858,157.277231 C107.173858,154.938231 106.825858,152.429231 106.778858,149.959231" id="Fill-49" fill="#5454C6"></path>
                    <path d="M133.745058,160.640631 C131.862058,159.699631 128.127058,158.573631 125.346058,156.951631 C124.864058,157.644631 124.461058,158.401631 124.089058,159.073631 C123.522058,160.093631 123.082058,161.136631 122.753058,162.206631 C125.438058,163.097631 128.359058,163.363631 131.259058,163.164631 C133.062058,163.067631 134.909058,161.223631 133.745058,160.640631" id="Fill-51" fill="#5454C6"></path>
                    <path d="M55.0555582,95.7349307 C55.8935582,94.7989307 56.4805582,93.7119307 55.6965582,92.4999307 C54.8725582,91.2239307 53.4735582,91.1869307 52.4425582,92.0649307 C46.6775582,97.6439307 41.5925582,104.475931 38.1745582,111.313931 C36.5605582,114.864931 33.0125582,124.545931 35.2695582,128.417931 C37.7245582,132.450931 44.7525582,128.289931 51.2285582,123.080931 C50.4825582,121.990931 49.7365582,120.900931 49.0845582,119.755931 C45.2055582,122.436931 40.6895582,124.666931 39.4865582,123.516931 C35.8705582,119.269931 46.0775582,104.075931 55.0555582,95.7349307" id="Fill-53" fill="#006FFF"></path>
                    <path d="M85.2777582,53.2497307 C85.4737582,51.5897307 85.2777582,48.9157307 87.3157582,48.8697307 C91.0417582,48.7777307 90.8057582,55.4627307 89.7857582,58.1367307 C89.1597582,59.7967307 88.3757582,60.8577307 86.7667582,60.9037307 C85.9827582,60.9037307 85.1207582,60.6267307 84.7287582,59.7507307 C84.0227582,58.2757307 84.9237582,55.8777307 85.0807582,54.3107307 C85.1207582,53.9417307 85.2777582,53.5717307 85.2777582,53.2497307" id="Fill-55" fill="#F1CCB4"></path>
                    <path d="M39.2631582,33.1924307 C24.4901582,50.9754307 41.4611582,78.0584307 54.2301582,92.7334307 C55.0691582,93.4634307 56.2671582,93.6094307 57.0841582,93.4324307 C57.7281582,93.2934307 58.5661582,92.8974307 58.6231582,91.8604307 C57.6751582,83.9964307 61.0061582,79.7204307 72.0401582,74.2054307 C81.5141582,69.4674307 87.9971582,60.4724307 88.8561582,49.8604307 C91.3221582,19.3834307 59.6791582,8.61743071 39.2631582,33.1924307" id="Fill-57" fill="#FDE8D8"></path>
                    <path d="M39.2631582,33.1924307 C37.2351582,35.6334307 35.8091582,38.2504307 34.8841582,40.9854307 C38.9561582,37.4014307 45.6801582,33.5884307 55.0191582,35.1214307 C64.5761582,36.6904307 75.9221582,34.3364307 85.8941582,32.5364307 C78.8311582,14.1704307 55.8701582,13.2014307 39.2631582,33.1924307" id="Fill-59" fill="#F6CBB9"></path>
                    <path d="M49.3908582,34.1618307 C47.2368582,34.3158307 42.4938582,35.0618307 42.7738582,37.8558307 C42.9278582,39.3948307 44.3128582,39.0868307 46.0058582,38.6248307 C47.2368582,38.4718307 50.4688582,38.6248307 51.3918582,37.7008307 C52.9298582,36.3168307 52.9298582,33.8548307 49.3908582,34.1618307" id="Fill-61" fill="#12173B"></path>
                    <path d="M86.0192582,35.2400307 C84.4792582,35.0850307 83.0942582,35.0850307 82.9402582,36.9320307 C82.7882582,38.9340307 83.8642582,38.3180307 85.2502582,38.6250307 C86.4812582,38.7790307 87.7112582,39.3950307 88.3282582,38.1630307 C88.7892582,36.7790307 88.4812582,35.7010307 86.0192582,35.2400307" id="Fill-63" fill="#12173B"></path>
                    <path d="M61.8809582,61.4063307 C61.5969582,59.1603307 62.0069582,55.9873307 64.5069582,53.6433307 C67.1629582,51.2203307 72.0859582,49.5793307 75.1329582,52.4713307 C76.9299582,54.1113307 78.2589582,58.0953307 77.0869582,60.5963307 C75.6809582,63.7203307 73.0229582,60.8303307 72.3989582,58.7983307 C72.3989582,60.3623307 71.3049582,63.1743307 69.3509582,63.0963307 C67.7109582,63.0173307 66.5389582,60.9083307 66.6169582,59.3463307 C66.4609582,60.5963307 65.7589582,62.6273307 64.5069582,63.0963307 C63.4129582,63.4873307 62.0239582,62.7783307 61.8809582,61.4063307" id="Fill-65" fill="#0F1639"></path>
                    <path d="M70.1328582,41.6892307 C67.9448582,41.2992307 67.0848582,50.6742307 69.4298582,51.4552307 C73.6488582,52.9402307 73.7278582,42.5482307 70.5228582,41.7672307" id="Fill-67" fill="#F1CCB4"></path>
                    <path d="M48.7810582,47.7830307 C49.1840582,51.7370307 54.6670582,51.5630307 55.0780582,47.7050307 C55.1450582,47.0730307 54.1600582,47.0800307 54.0920582,47.7050307 C53.8150582,50.2990307 50.0390582,50.4720307 49.7660582,47.7830307 C49.7010582,47.1570307 48.7140582,47.1510307 48.7810582,47.7830307" id="Fill-69" fill="#1E0159"></path>
                    <path d="M80.5777582,47.1583307 C80.6647582,48.4993307 81.6037582,49.4403307 82.9367582,49.5643307 C84.1767582,49.6803307 85.1267582,48.6873307 85.0007582,47.4703307 C84.9357582,46.8453307 83.9497582,46.8393307 84.0157582,47.4703307 C84.0947582,48.2213307 83.6757582,48.6083307 82.9367582,48.5793307 C82.1607582,48.5503307 81.6107582,47.8953307 81.5627582,47.1583307 C81.5227582,46.5273307 80.5377582,46.5233307 80.5777582,47.1583307" id="Fill-71" fill="#1E0159"></path>
                    <path d="M52.0068582,35.6219307 C45.1258582,33.9989307 39.5388582,39.3469307 37.8588582,45.6389307 C36.3538582,51.2819307 39.1088582,56.9349307 44.4718582,59.1869307 C49.5638582,61.3229307 55.7558582,60.7979307 59.4218582,56.3649307 C63.6518582,51.2519307 63.3248582,43.8949307 58.8018582,39.0749307 C57.0018582,37.1589307 54.5068582,36.2089307 52.0068582,35.6219307 C51.3878582,35.4769307 51.1258582,36.4269307 51.7428582,36.5719307 C54.4398582,37.2049307 56.8068582,38.2539307 58.6568582,40.3829307 C61.0208582,43.1049307 62.0028582,47.0979307 61.2288582,50.5899307 C60.6228582,53.3299307 58.8878582,56.0349307 56.6138582,57.6729307 C54.3668582,59.2939307 51.5288582,59.5909307 48.8438582,59.3279307 C43.1138582,58.7659307 38.4468582,54.5989307 38.4378582,48.6689307 C38.4258582,41.8539307 44.6028582,34.8879307 51.7428582,36.5719307 C52.3628582,36.7169307 52.6238582,35.7679307 52.0068582,35.6219307" id="Fill-73" fill="#006FFF"></path>
                    <path d="M87.7040582,36.6482307 C84.7910582,36.2502307 82.0010582,36.7722307 79.8110582,38.8012307 C77.5150582,40.9322307 76.0840582,43.9982307 75.7690582,47.0892307 C75.1980582,52.6802307 79.6810582,56.9052307 84.9450582,57.6122307 C87.6050582,57.9702307 90.2910582,57.6292307 92.5420582,56.0882307 C94.8380582,54.5152307 96.3380582,51.7352307 96.8870582,49.0582307 C97.5120582,46.0092307 96.5510582,42.6732307 94.7020582,40.2232307 C92.9750582,37.9382307 90.3480582,37.2892307 87.7040582,36.6482307 C87.0870582,36.4982307 86.8250582,37.4482307 87.4430582,37.5982307 C89.6310582,38.1292307 91.7720582,38.5952307 93.4240582,40.2392307 C95.5790582,42.3862307 96.4030582,45.8642307 95.9380582,48.7972307 C95.5700582,51.1032307 94.2230582,53.3632307 92.4840582,54.8942307 C90.6000582,56.5532307 88.0250582,56.9062307 85.6130582,56.7082307 C80.7980582,56.3132307 76.8080582,52.8752307 76.7180582,47.9022307 C76.6680582,45.1592307 77.9390582,42.4742307 79.6690582,40.4122307 C81.6670582,38.0332307 84.3900582,37.1812307 87.4430582,37.5982307 C88.0630582,37.6832307 88.3310582,36.7342307 87.7040582,36.6482307" id="Fill-75" fill="#006FFF"></path>
                    <path d="M62.1261582,47.6007307 C66.8021582,46.1627307 71.2101582,46.1677307 75.9391582,47.3987307 C76.5571582,47.5587307 76.8151582,46.6087307 76.2011582,46.4487307 C71.3161582,45.1767307 66.6991582,45.1637307 61.8651582,46.6507307 C61.2591582,46.8367307 61.5181582,47.7877307 62.1261582,47.6007307" id="Fill-77" fill="#006FFF"></path>
                    <path d="M34.3174582,57.3160307 C34.3174582,49.6980307 33.5304582,42.6050307 38.5204582,36.0380307 C44.2984582,28.6820307 59.5354582,31.3090307 68.2034582,30.7840307 C75.8214582,30.2590307 90.5324582,28.9450307 96.0494582,21.0650307 C102.533458,11.8010307 93.6854582,9.50703071 88.1684582,14.4970307 C96.3114582,7.40503071 92.2074582,-5.32596929 83.1774582,2.41403071 C75.8214582,8.71903071 71.6184582,11.8710307 63.7394582,13.4470307 C56.3834582,15.0230307 47.1884582,13.9720307 40.3594582,16.8620307 C29.8504582,21.5910307 29.3264582,29.4710307 29.3264582,39.7150307 L29.3264582,43.3940307 C29.3264582,37.8770307 23.5464582,36.5640307 24.3354582,43.3940307 C24.8594582,47.5960307 29.8504582,56.0020307 33.2664582,56.7900307" id="Fill-79" fill="#12173B"></path>
                    <path d="M35.6109582,54.7710307 C35.6109582,52.2800307 35.8879582,49.2380307 34.7799582,46.9320307 C34.3209582,45.9640307 33.2589582,45.2260307 32.1529582,45.4110307 C30.8159582,45.5950307 30.3089582,46.7940307 29.7099582,47.8080307 C28.3259582,50.1600307 28.5119582,53.1570307 28.7419582,55.7850307 C28.9259582,58.0440307 29.5259582,61.0410307 31.8759582,62.0550307 C36.0719582,63.8540307 35.6109582,57.0290307 35.6109582,54.7710307" id="Fill-81" fill="#F1CCB4"></path>
                    <path d="M112.634858,137.349431 C111.677858,136.031431 110.992858,134.627431 110.183858,133.235431 C109.925858,132.759431 109.383858,131.217431 108.605858,131.566431 C108.183858,131.729431 108.211858,132.412431 108.368858,132.772431 C108.016858,132.335431 107.274858,132.027431 106.856858,132.593431 C106.028858,133.788431 107.422858,135.815431 108.005858,136.791431 C108.369858,137.381431 110.512858,140.495431 110.787858,138.290431 C111.130858,138.665431 111.513858,139.131431 112.051858,138.864431 C112.378858,138.680431 113.019858,138.187431 112.634858,137.349431" id="Fill-83" fill="#D9FCF8"></path>
                    <path d="M121.876058,148.974831 C120.321058,148.490831 118.934058,147.772831 117.454058,147.139831 C116.961058,146.914831 115.606058,146.000831 115.191058,146.746831 C114.950058,147.127831 115.381058,147.657831 115.721058,147.853831 C115.180058,147.712831 114.398058,147.910831 114.402043,148.613831 C114.452058,150.066831 116.779058,150.859831 117.830058,151.293831 C118.477058,151.549831 122.055058,152.764831 120.956058,150.834831 C121.457058,150.928831 122.042058,151.072831 122.314058,150.538831 C122.466058,150.195831 122.686058,149.417831 121.876058,148.974831" id="Fill-85" fill="#D9FCF8"></path>
                    <path d="M108.794458,91.0346307 C107.148458,91.1716307 105.915458,92.1316307 104.132458,91.9936307 C100.430458,90.8966307 106.486458,80.0126307 108.382458,76.0916307 C114.414458,63.6146307 113.592458,61.4216307 123.051458,59.0906307 C130.493458,57.2566307 136.076458,55.1156307 143.479458,53.8816307 C144.850458,53.7436307 148.140458,52.7846307 149.100458,53.6066307 C150.334458,54.5666307 150.197458,55.8006307 149.237458,58.6796307 C147.384458,64.2356307 145.331458,69.6986307 142.656458,74.8566307 C140.737458,78.5586307 140.052458,81.0266307 136.487458,82.5346307 C131.276458,84.5906307 125.518458,85.6866307 120.173458,87.0576307 C117.430458,87.7446307 111.809458,90.2126307 108.794458,91.0346307" id="Fill-87" fill="#4FA4D3"></path>
                    <path d="M81.2378582,103.235831 C81.2378582,103.235831 81.5118582,108.034831 88.3658582,106.799831 C88.3658582,106.799831 117.293858,98.0258307 134.704858,88.5668307 C134.704858,88.5668307 138.817858,86.7848307 137.582858,81.8488307 C137.582858,81.8488307 97.5508582,92.6798307 81.2378582,103.235831" id="Fill-89" fill="#4FA4D3"></path>
                    <path d="M85.3371582,91.2295307 C86.9171582,91.3875307 88.4981582,91.4395307 90.0251582,91.4395307 C90.7631582,91.4395307 92.2371582,91.1245307 92.5511582,92.0725307 C93.0281582,93.8615307 88.3921582,93.5985307 87.3921582,93.4405307" id="Fill-91" fill="#FCEDE0"></path>
                    <path d="M91.5522582,96.1791307 C89.8142582,94.0201307 86.9692582,90.5581307 83.8622582,91.2951307 C81.9672582,91.7681307 80.1772582,93.2821307 78.8602582,94.5991307 C77.8442582,95.5701307 76.1052582,96.5401307 74.9112582,97.5461307 C70.1282582,100.927131 65.4472582,105.396131 63.1692582,107.673131 C59.4152582,111.429131 53.6402582,116.702131 48.5072582,120.147131 C49.1932582,121.300131 49.8672582,122.460131 50.5812582,123.596131 C56.2662582,119.111131 61.6602582,113.645131 63.3452582,111.960131 C68.7512582,106.790131 75.0242582,101.249131 81.1412582,97.6441307 C82.2422582,99.0131307 83.6712582,102.275131 85.6542582,101.761131 C86.6832582,101.494131 86.2152582,99.8531307 85.8662582,99.1281307 C85.5832582,98.5401307 85.2922582,97.9371307 84.9152582,97.4031307 C84.6022582,96.9601307 84.1292582,96.6161307 83.7532582,96.2211307 C83.8032582,96.1981307 83.8532582,96.1721307 83.9032582,96.1481307 C84.2522582,96.4741307 84.5882582,96.8901307 84.8792582,97.1921307 C85.7242582,98.0631307 86.4472582,99.0181307 87.4192582,99.7631307 C88.2772582,100.421131 89.7942582,100.506131 89.4472582,99.0721307 C89.2622582,98.2991307 88.3892582,97.4491307 87.7932582,96.9351307 C87.2032582,96.4261307 86.5552582,95.8301307 85.9832582,95.2161307 C86.0562582,95.1871307 86.1292582,95.1561307 86.2022582,95.1281307 C87.2062582,95.9501307 88.2392582,96.7671307 89.3942582,97.2851307 C90.4982582,97.8111307 92.9742582,97.8641307 91.5522582,96.1791307" id="Fill-93" fill="#FDE8D8"></path>
                    <path d="M137.919358,82.4875307 C136.364358,81.9685307 133.046358,81.7755307 132.854358,79.8735307 C132.754358,78.8875307 134.343358,78.7645307 135.089358,78.8355307 C135.695358,78.8915307 136.318358,78.9505307 136.908358,79.1075307 C137.396358,79.2375307 137.851358,79.5395307 138.317358,79.7395307 C138.322358,79.6885307 138.328358,79.6375307 138.334358,79.5865307 C137.934358,79.3855307 137.461358,79.2275307 137.105358,79.0705307 C136.068358,78.6135307 134.997358,78.2915307 134.029358,77.6805307 C133.176358,77.1435307 132.611358,75.8445307 133.976358,75.6815307 C134.714358,75.5925307 135.741358,76.0825307 136.384358,76.4375307 C137.020358,76.7885307 137.752358,77.1625307 138.475358,77.4645307 C138.476358,77.3905307 138.480358,77.3155307 138.481358,77.2435307 C137.435358,76.6315307 136.387358,75.9925307 135.559358,75.1505307 C134.741358,74.3545307 133.893358,72.2055307 135.828358,72.9035307 C138.280358,73.7235307 142.231358,75.0905307 142.593358,78.0485307 C142.792358,79.8615307 142.431358,80.5045307 141.705358,82.0845307 C141.185358,83.2885307 139.825358,83.6515307 137.919358,82.4875307" id="Fill-95" fill="#FDE8D8"></path>
                    <path d="M13.8164582,125.120431 C19.1544582,128.691431 24.8094582,131.754431 30.1514582,135.320431 C35.1744582,138.671431 40.2684582,142.610431 43.1334582,148.056431 C44.8654582,151.347431 46.8544582,156.554431 42.5294582,158.600431 C40.6154582,159.505431 38.2994582,159.667431 36.2244582,159.820431 C33.3564582,160.030431 30.4744582,160.032431 27.6024582,160.076431 C20.8934582,160.180431 13.9334582,160.027431 7.35845821,158.598431 C5.91145821,158.283431 4.42845821,157.894431 3.12645821,157.168431 C2.77545821,156.973431 2.31645821,156.646431 2.12645821,156.391431 C1.86045821,156.038431 1.82745821,155.854431 1.88745821,155.555431 C2.12545821,154.347431 3.49845821,153.316431 4.53945821,152.823431 C6.63745821,151.830431 9.22645821,151.610431 11.5004582,151.375431 C16.9714582,150.810431 22.4284582,151.027431 27.9134582,151.161431 C35.4014582,151.343431 42.8944582,151.298431 50.3844582,151.341431 C54.1164582,151.362431 57.8484582,151.416431 61.5784582,151.525431 C63.9254582,151.593431 66.6884582,151.558431 68.6174582,150.028431 C71.7324582,147.557431 67.5784582,143.316431 65.6424582,141.741431 C62.8264582,139.449431 59.7904582,137.407431 56.9294582,135.169431 C55.9404582,134.395431 54.5354582,135.779431 55.5364582,136.562431 C58.2734582,138.703431 61.0574582,140.778431 63.8604582,142.833431 C65.2494582,143.854431 66.8324582,145.244431 67.4954582,146.883431 C68.1934582,148.606431 66.5154582,149.122431 65.1044582,149.387431 C63.4974582,149.690431 61.8094582,149.559431 60.1874582,149.516431 C58.2354582,149.463431 56.2824582,149.430431 54.3294582,149.405431 C46.9604582,149.311431 39.5884582,149.378431 32.2184582,149.273431 C26.2974582,149.189431 20.3854582,148.828431 14.4664582,149.170431 C11.8454582,149.322431 9.20945821,149.583431 6.63945821,150.133431 C4.75245821,150.537431 3.00745821,151.162431 1.59845821,152.510431 C-0.381541791,154.409431 -0.699541791,156.881431 1.65645821,158.571431 C4.26245821,160.438431 8.07145821,160.815431 11.1434582,161.222431 C14.9994582,161.735431 18.9004582,161.932431 22.7874582,162.019431 C26.4104582,162.103431 30.0394582,162.047431 33.6614582,161.922431 C37.4904582,161.790431 42.7174582,161.808431 45.6144582,158.843431 C48.7814582,155.601431 46.4234582,150.081431 44.6794582,146.768431 C41.9054582,141.495431 36.9214582,137.600431 32.1184582,134.279431 C26.5104582,130.403431 20.4744582,127.206431 14.8104582,123.419431 C13.7524582,122.710431 12.7674582,124.419431 13.8164582,125.120431" id="Fill-97" fill="#7A66EE"></path>
                    <path d="M134.249358,106.208331 C134.086358,100.315331 129.634358,100.740331 124.683358,102.451331 C124.369358,103.847331 126.340358,104.163331 127.488358,104.272331 C128.529358,104.329331 130.325358,103.866331 131.077358,104.735331 C131.656358,105.429331 131.771358,106.877331 131.888358,107.688331 C132.217358,109.332331 133.078358,109.728331 133.964358,109.428331 C134.177358,108.016331 134.275358,106.915331 134.249358,106.208331" id="Fill-99" fill="#134E8F"></path>
                    <path d="M150.807658,95.5028307 C150.124658,90.8268307 145.215658,90.2548307 140.257658,91.0118307 C140.347658,91.7368307 140.988658,92.4998307 141.718658,92.8798307 C143.339658,93.6898307 146.871658,93.1698307 147.971658,94.9058307 C148.434658,95.6588307 148.145658,96.8748307 148.376658,97.7428307 C148.682658,98.7728307 149.563658,99.3708307 150.526658,99.3808307 C150.882658,98.1388307 151.002658,96.8398307 150.807658,95.5028307" id="Fill-101" fill="#134E8F"></path>
                    <path d="M130.090758,75.5602307 C129.378758,77.6952307 127.879758,79.1192307 126.744758,78.7412307 C125.608758,78.3622307 125.264758,76.3232307 125.976758,74.1872307 C126.689758,72.0512307 128.188758,70.6282307 129.323758,71.0052307 C130.460758,71.3842307 130.803758,73.4232307 130.090758,75.5602307" id="Fill-103" fill="#FFFFFF"></path>
                    <path d="M100.716258,138.481031 C99.1432582,142.805031 99.3702582,147.674031 100.274258,152.126031 C100.999258,155.690031 102.573258,159.502031 105.471258,161.834031 C106.126258,162.359031 107.059258,161.436031 106.401258,160.905031 C103.630258,158.676031 102.281258,155.157031 101.542258,151.777031 C100.626258,147.594031 100.506258,142.889031 101.982258,138.830031 C102.273258,138.033031 101.003258,137.692031 100.716258,138.481031" id="Fill-123" fill="#4FA4D3"></path>
                    <path d="M112.694558,154.398031 C114.355558,158.357031 117.808558,160.999031 121.518558,162.780031 C124.488558,164.204031 128.295558,165.002031 132.159558,163.728031 C133.027558,163.440031 133.148558,162.050031 132.268558,162.340031 C128.577558,163.558031 125.143558,162.727031 122.284558,161.422031 C118.748558,159.809031 115.490558,157.167031 113.931558,153.449031 C113.624558,152.719031 112.391558,153.675031 112.694558,154.398031" id="Fill-125" fill="#4FA4D3"></path>
                    <path d="M117.786358,125.860731 C116.122358,127.180731 114.858358,128.177731 114.217358,128.710731 C112.081358,130.487731 110.012358,131.911731 108.741358,133.208731 C109.768358,134.471731 110.495358,135.916731 111.200358,137.379731 C112.940358,136.507731 115.006358,134.797731 115.506358,134.129731 C118.792358,131.643731 122.038358,129.157731 125.152358,126.500731 C122.734358,126.105731 120.275358,125.902731 117.786358,125.860731" id="Fill-127" fill="#051C80"></path>
                    <path d="M124.347758,126.376131 C122.702758,130.869131 121.008758,135.228131 119.893758,138.219131 C118.143758,142.912131 116.596758,146.921131 114.915758,151.486131 C117.029758,152.713131 116.188758,156.563131 118.638758,152.566131 C123.046758,145.367131 126.768758,135.954131 129.472758,127.425131 C127.787758,126.971131 126.077758,126.627131 124.347758,126.376131" id="Fill-129" fill="#051C80"></path>
                    <path d="M108.285558,134.018031 C106.480558,134.968031 103.633558,136.108031 102.209558,137.627031 C100.973558,139.050031 100.784558,141.708031 100.594558,143.417031 C100.215558,149.208031 100.973558,155.093031 104.487558,159.840031 C105.151558,160.790031 106.576558,162.403031 107.999558,161.929031 C109.518558,161.359031 108.192558,160.277031 107.620558,157.277031 C106.917558,153.597031 106.458558,149.492031 107.027558,145.790031 C107.502558,142.563031 108.189558,139.050031 109.614558,136.108031" id="Fill-131" fill="#006FFF"></path>
                    <path d="M116.164158,148.828131 C115.400158,148.993131 114.074158,150.727131 113.695158,151.961131 C113.126158,153.765131 115.039158,156.932131 116.274158,158.166131 C120.165158,162.248131 125.753158,163.543131 131.259158,163.164131 C133.062158,163.068131 134.908158,161.224131 133.745158,160.640131 C131.495158,159.517131 126.606158,158.132131 123.854158,155.948131 C122.146158,154.619131 121.006158,152.911131 119.487158,151.391131 C118.537158,150.442131 117.492158,150.252131 116.164158,149.682131" id="Fill-133" fill="#006FFF"></path>
                    <path d="M106.778858,149.959231 C105.607858,150.212231 104.372858,150.829231 103.661858,151.236231 C103.006858,151.611231 102.072858,152.125231 101.247858,152.751231 C101.856858,155.273231 102.885858,157.675231 104.487858,159.840231 C105.151858,160.790231 106.575858,162.403231 107.999858,161.929231 C109.518858,161.359231 108.192858,160.277231 107.620858,157.277231 C107.173858,154.938231 106.825858,152.429231 106.778858,149.959231" id="Fill-135" fill="#051C80"></path>
                    <path d="M133.745058,160.640631 C131.862058,159.699631 128.127058,158.573631 125.346058,156.951631 C124.864058,157.644631 124.461058,158.401631 124.089058,159.073631 C123.522058,160.093631 123.082058,161.136631 122.753058,162.206631 C125.438058,163.097631 128.359058,163.363631 131.259058,163.164631 C133.062058,163.067631 134.909058,161.223631 133.745058,160.640631" id="Fill-137" fill="#051C80"></path>
                    <path d="M112.634858,137.349431 C111.677858,136.031431 110.992858,134.627431 110.183858,133.235431 C109.925858,132.759431 109.383858,131.217431 108.605858,131.566431 C108.183858,131.729431 108.211858,132.412431 108.368858,132.772431 C108.016858,132.335431 107.274858,132.027431 106.856858,132.593431 C106.028858,133.788431 107.422858,135.815431 108.005858,136.791431 C108.369858,137.381431 110.512858,140.495431 110.787858,138.290431 C111.130858,138.665431 111.513858,139.131431 112.051858,138.864431 C112.378858,138.680431 113.019858,138.187431 112.634858,137.349431" id="Fill-139" fill="#D9FCF8"></path>
                    <path d="M121.876058,148.974831 C120.321058,148.490831 118.934058,147.772831 117.454058,147.139831 C116.961058,146.914831 115.606058,146.000831 115.191058,146.746831 C114.950058,147.127831 115.381058,147.657831 115.721058,147.853831 C115.180058,147.712831 114.398058,147.910831 114.402043,148.613831 C114.452058,150.066831 116.779058,150.859831 117.830058,151.293831 C118.477058,151.549831 122.055058,152.764831 120.956058,150.834831 C121.457058,150.928831 122.042058,151.072831 122.314058,150.538831 C122.466058,150.195831 122.686058,149.417831 121.876058,148.974831" id="Fill-141" fill="#D9FCF8"></path>
                </g>
            </g>
        </g>
    </g>
</svg>