<?xml version="1.0" encoding="UTF-8"?>
<svg width="112px" height="42px" viewBox="0 0 112 42" version="1.1" xmlns="http://www.w3.org/2000/svg" xmlns:xlink="http://www.w3.org/1999/xlink">
    <title>gnp</title>
    <g id="Page-1" stroke="none" stroke-width="1" fill="none" fill-rule="evenodd">
        <g id="ESTRATEGIA" transform="translate(-1024.000000, -947.000000)" fill="#294EFA" fill-rule="nonzero">
            <g id="gnp" transform="translate(1024.000000, 947.000000)">
                <path d="M50.1329477,19.7986859 C50.1329477,18.6581534 50.337836,18.2467727 49.0570605,17.5698862 L48.1732284,17.1318714 L48.1732284,16.3450494 L57,16.3450494 L57,17.1318714 L56.1000982,17.4866406 C54.7640274,18.030802 54.7640274,18.1809674 54.7928747,19.7986859 L54.8059313,26.3142474 L54.4778979,26.6287867 C52.9399518,27.0232843 49.3438596,28 46.1001286,28 C38.6641651,28 35,24.1518102 35,15.8264634 C35,6.8764398 40.1773371,3 46.9738614,3 C48.7981602,3 52.1092388,3 54.4100481,4.94473914 C55.1734693,5.58574192 55.2418212,6.30402833 55.2418212,6.58964901 C55.2418212,7.13486912 55.1328487,7.24586335 55.0235973,7.46188975 L53.3755627,10.6576541 L52.7625158,10.6576541 C52.7625158,9.07966399 50.9240444,4.87781943 46.1420325,4.87781943 C40.5984965,4.87781943 40.3258142,8.73904768 40.3258142,15.2682048 C40.3258142,20.9822342 40.9265857,26.1232392 47.545953,26.1232392 C49.6841127,26.1232392 50.0789357,24.9958009 50.1328361,23.7301213 L50.1328361,19.7986859 L50.1329477,19.7986859 Z" id="Path"></path>
                <path d="M59,27.2136125 L60.5844768,26.5728585 C61.8814159,26.0711207 61.8814159,25.1354297 61.8814159,23.0572469 L61.8814159,8.08474435 C61.8814159,6.93241026 61.5526656,6.36222092 60.6519156,5.74915895 L59.2050565,4.78638752 L59.2050565,4 L65.7706675,4 L66.167919,4.24333417 C66.8909571,5.20777379 68.392114,7.79964968 70.4134892,10.5169739 L77.37473,19.9353296 C77.6614289,20.3311925 77.8126909,20.5082437 77.947289,20.5082437 C78.2339878,20.5082437 78.2339878,20.1536408 78.2339878,19.5019879 L78.2339878,8.1124364 C78.2339878,6.4719326 78.2050216,6.14502183 76.8016119,5.57483249 L74.7393037,4.78633192 L74.7393037,4 L83,4 L83,4.78633192 L81.9501688,5.18002614 C80.4039409,5.79091945 80.105499,6.14502183 80.105499,8.50607501 L80.105499,22.6238496 C80.105499,24.783496 80.1450899,26.9686657 80.1450899,27.7147941 L79.8991004,28 L77.8810244,28 L77.4839966,27.7147941 C77.1552463,27.3210999 75.285189,24.6998638 73.3741429,22.1612033 L64.9381951,10.9492034 C64.474008,10.337198 64.2566492,10.0113993 64.0780985,10.0113993 C63.7504666,10.0113993 63.7504666,10.3790141 63.7504666,10.8808074 L63.7504666,23.6969444 C63.7504666,25.4183557 63.7504666,25.960853 65.2658829,26.4664276 L67.3953503,27.2136681 L67.3953503,28 L59,28 L59,27.2136125 L59,27.2136125 Z" id="Path"></path>
                <path d="M86,27.2137182 L87.5656499,26.6837287 C88.7425565,26.2878631 88.7841582,25.6389304 88.7841582,23.3842368 L88.7841582,7.89415224 C88.7841582,6.18468447 88.7841582,5.74917111 87.5656499,5.35653068 L86,4.78633738 L86,4 L97.8160343,4 C101.949481,4 106,4.89493769 106,10.337242 C106,15.3212342 102.303095,18.4024133 96.5210719,18.4024133 C96.2790409,18.4024133 95.952479,18.3627656 95.7377214,18.3627656 L95.2120578,17.0703497 L95.4954139,16.784697 C98.0864452,16.7200817 101.231741,15.645923 100.786626,10.6092711 C100.437603,6.68909479 99.3052854,5.95436062 96.1021232,5.95436062 C93.9265554,5.95436062 93.7785154,6.27854894 93.7785154,7.17726789 L93.7785154,23.3841812 C93.7785154,25.7860107 93.7369137,26.2878075 95.1704562,26.6836731 L97.0194621,27.2136626 L97.0194621,28 L86,28 L86,27.2137182 L86,27.2137182 L86,27.2137182 Z" id="Path"></path>
                <rect id="Rectangle" x="35" y="31" width="77" height="1"></rect>
                <path d="M20,16.0013608 C20,18.2105767 18.2122304,20 15.9929589,20 C13.7877696,20 12,18.2105767 12,16.0013608 C12,13.791034 13.7877696,12 15.9929589,12 C18.2122304,12 20,13.791034 20,16.0013608" id="Path"></path>
                <path d="M8.6641289,8.63575001 L0,8.63575001 L1.75093875,14 L6.06873423,14 L6.06873423,13.986985 C10.4436056,13.986985 13.9880397,10.4423362 14,6.05571513 L14,1.75168945 L8.6641289,0 L8.6641289,8.63575001 L8.6641289,8.63575001 Z" id="Path"></path>
                <path d="M8.63622928,22.3403864 L8.63622928,31 L14,29.2626538 L14,24.9374687 L13.9845376,24.9374687 C13.9845376,20.5617239 10.4395967,17.0141433 6.05568357,17 L1.75063963,17 L0,22.3403864 L8.63622928,22.3403864 Z" id="Path"></path>
                <path d="M22.3357307,22.3550866 L31,22.3550866 L29.2357938,17 L24.9291927,17 L24.9169544,17 C20.5443221,17.0141433 17,20.5617239 17,24.9374687 L17,24.9543404 L17,29.2463389 L22.3357863,31 L22.3357307,22.3550866 L22.3357307,22.3550866 Z" id="Path"></path>
                <path d="M22.3512298,8.65863185 L22.3512298,0 L17,1.73804126 L17,6.06189988 C17.0132952,10.4401645 20.5585489,13.9891411 24.9292168,14 L24.9433464,14 L29.2358009,14 L31,8.65863185 C31,8.65863185 22.3512298,8.65863185 22.3512298,8.65863185 Z" id="Path"></path>
                <path d="M109.007195,4.39226688 C109.83434,4.39226688 110.512535,5.05630399 110.512535,6.00516652 C110.512535,6.94264048 109.83434,7.6186217 109.007195,7.6186217 L109.007195,8 C110.103685,8 111,7.10374712 111,6.00516652 C111,4.89408628 110.103685,4 109.007195,4 L109.007195,4.39226688 Z M109.007195,6.30410266 L109.007195,5.83100469 L109.021306,5.83100469 C109.277928,5.83100469 109.483826,5.78922808 109.483826,5.49029194 C109.483826,5.22063276 109.23726,5.1789117 109.032418,5.1789117 L109.007195,5.1789117 L109.007195,4.85342074 L109.07392,4.85342074 C109.61622,4.85342074 109.915399,5.04330435 109.915399,5.51856893 C109.915399,5.91083581 109.685334,6.10288603 109.317208,6.12999639 L109.928678,7.13146857 L109.494604,7.13146857 L109.007195,6.30410266 Z M109.007195,7.6186217 C108.167882,7.6186217 107.487465,6.94264048 107.487465,6.00516652 C107.487465,5.05630399 108.167826,4.39226688 109.007195,4.39226688 L109.007195,4 C107.895204,4 107,4.89408628 107,6.00516652 C107,7.10374712 107.895204,8 109.007195,8 L109.007195,7.6186217 Z M109.007195,4.85342074 L109.007195,5.1789117 L108.655347,5.1789117 L108.655347,5.83100469 L109.007195,5.83100469 L109.007195,6.30410266 L108.91308,6.15488459 L108.655347,6.15488459 L108.655347,7.13141302 L108.232718,7.13141302 L108.232718,4.85336518 L109.007195,4.85336518 L109.007195,4.85342074 Z" id="Shape"></path>
                <path d="M36.7800327,42 C35.9681112,42 35.4663913,41.7723749 35.2819917,41.6687283 C35.1144329,41.4803561 35,40.8535638 35,40.2650835 C35.0609353,40.1528129 35.2643539,40.1446069 35.3333112,40.239577 C35.5092107,40.8041187 36.1001288,41.5988466 36.8500525,41.5988466 C37.501959,41.5988466 37.8015353,41.1588585 37.8015353,40.7239925 C37.8015353,40.0231894 37.1312473,39.6056763 36.6028582,39.3478927 C35.9681112,39.0324581 35.2726415,38.5128143 35.2726415,37.6573514 C35.2643539,36.6752966 36.0394592,36 37.3175063,36 C37.608795,36 37.9691472,36.034183 38.3211587,36.1382999 C38.4363354,36.1735282 38.5162366,36.1908811 38.6207881,36.2071885 C38.6910735,36.3980696 38.7800592,36.8671708 38.7800592,37.4490653 C38.7351679,37.5531822 38.5162366,37.561336 38.4363354,37.4750945 C38.2856175,37.0315522 37.907415,36.3981219 37.2734119,36.3981219 C36.691047,36.3981219 36.3745767,36.7722529 36.3745767,37.2071711 C36.3745767,37.6027319 36.7351414,37.9677161 37.175076,38.1933028 L37.7577066,38.4965068 C38.3024584,38.7818353 39,39.283081 39,40.2396292 C39,41.3074028 38.1094524,42 36.7800327,42" id="Path"></path>
                <path d="M46.1244882,38.3692745 C46.1244882,38.6212822 46.132583,38.6393177 46.3659304,38.6393177 L46.9595469,38.6393177 C47.4075095,38.6393177 47.5098357,38.5761935 47.5957648,38.1443743 L47.6385737,37.9194198 C47.7001666,37.8478212 47.9149893,37.8478212 47.9570718,37.9278943 C47.9418681,38.215973 47.9327356,38.5395794 47.9327356,38.8833398 C47.9327356,39.2249817 47.9418681,39.552282 47.9570718,39.8393286 C47.9149893,39.9204882 47.7001666,39.9289627 47.6385737,39.8478031 L47.5957648,39.623935 C47.5098876,39.1889107 47.4075095,39.1146502 46.9595469,39.1146502 L46.3659304,39.1146502 C46.132583,39.1146502 46.1244882,39.126873 46.1244882,39.3968619 L46.1244882,40.4689947 C46.1244882,40.8827785 46.1592024,41.1724325 46.2636041,41.3252451 C46.3750629,41.4865322 46.5377367,41.5586741 47.1684024,41.5586741 C47.9150931,41.5586741 48.2079578,41.5316209 48.680516,40.5140834 C48.7502037,40.4143451 48.9650264,40.4509593 49,40.5591721 C48.9650264,41.0260301 48.7592843,41.7586397 48.6377071,42 C48.1811309,41.9835399 47.3564501,41.9739789 46.6495587,41.9739789 L45.5319614,41.9739789 C45.117727,41.9739789 44.6961244,41.9835399 44.0512928,42 C43.9829024,41.9469257 43.9829024,41.7320754 44.0512928,41.6848681 L44.4554087,41.621744 C44.843335,41.5586198 44.8947576,41.5050566 44.8947576,40.6753162 L44.8947576,37.3151228 C44.8947576,36.4944545 44.843335,36.4398048 44.4554087,36.3596773 L44.2407935,36.3145886 C44.1640488,36.2610255 44.1711058,36.0541064 44.2570349,36 C44.6614103,36.0180355 45.0850366,36.02651 45.4962614,36.02651 L47.3204907,36.02651 C47.8720767,36.02651 48.3636265,36.0180355 48.476123,36 C48.4821941,36.1432516 48.5435276,36.7910076 48.5865959,37.3973689 C48.5516223,37.4971073 48.3532485,37.5135673 48.2673713,37.4318645 C48.1731399,37.1172758 48.0522372,36.8445708 47.9420238,36.719409 C47.7781047,36.548072 47.5201617,36.4398591 47.0977807,36.4398591 L46.4091544,36.4398591 C46.1246439,36.4398591 46.1246439,36.4615886 46.1246439,36.7910619 L46.1246439,38.3692745 L46.1244882,38.3692745 Z" id="Path"></path>
                <path d="M60.4344921,40.8796453 C60.4344921,41.2420684 60.451161,41.4176351 60.6160099,41.4523407 C60.6521872,41.4865237 60.6429852,41.6361134 60.5910854,41.6621426 C60.4416434,41.6876492 60.2156926,41.7121627 59.9802769,41.7917661 C59.6765553,41.8856909 58.923719,42 58.436166,42 C57.8430781,42 57.3380147,41.9392651 56.7179515,41.6947576 C55.6976237,41.2874366 55,40.3258184 55,39.0757879 C55,37.9946861 55.4893935,37.0402286 56.534383,36.4588567 C57.1277338,36.1382999 57.8348225,36 58.5763533,36 C59.5437822,36 60.0249727,36.2072408 60.3027707,36.2072408 C60.3289572,36.4670627 60.3382119,37.0749865 60.4252374,37.6027319 C60.3900591,37.6976497 60.1546433,37.7078941 60.0934889,37.6226458 C59.8143763,36.8049201 59.2649326,36.3981219 58.4548857,36.3981219 C57.067631,36.3981219 56.3954577,37.541997 56.3954577,38.9129745 C56.3954577,40.1528129 56.8237493,40.887799 57.3901248,41.2690907 C57.8078472,41.549297 58.2620624,41.5988466 58.5845563,41.5988466 C59.0824157,41.5988466 59.1871618,41.5043992 59.1871618,40.9393871 L59.1871618,40.395282 C59.1871618,39.9272262 59.1342629,39.8756904 58.715226,39.8149032 L58.3316302,39.7633674 C58.2350871,39.7118316 58.2350871,39.5107061 58.3316302,39.4601634 C58.9516934,39.4754778 59.3776713,39.487238 59.8059104,39.487238 C60.2238956,39.487238 60.6521872,39.4754778 60.9489678,39.4601634 C61.0170107,39.5107061 61.0170107,39.7117794 60.9489678,39.7633674 L60.746627,39.7980731 C60.485235,39.840462 60.4343869,39.9272262 60.4343869,40.395282 L60.4343869,40.8796453 L60.4344921,40.8796453 L60.4344921,40.8796453 Z" id="Path"></path>
                <path d="M67.8088224,37.2978861 C67.8088224,36.4754743 67.75008,36.4228983 67.3058778,36.3443806 L67.0591717,36.2991024 C66.981484,36.2465797 66.97219,36.0530554 67.0803809,36 C67.5528223,36.0176851 68.0484985,36.025995 68.5220718,36.025995 C69.0073222,36.025995 69.4910831,36.0176851 69.9634649,36 C70.0434761,36.0530554 70.0434761,36.2465797 69.9634649,36.2991024 L69.7275421,36.3350054 C69.2844719,36.4052132 69.2245975,36.4754743 69.2245975,37.2978861 L69.2245975,39.3391337 C69.2245975,40.372755 69.3523295,41.5146178 70.8539544,41.5146178 C72.1182266,41.5146178 72.5033884,40.5231318 72.5033884,39.3131387 L72.5033884,38.2436144 C72.5033884,37.5293909 72.4635318,36.85677 72.3553409,36.6278754 C72.2663337,36.4405835 72.0498924,36.3870487 71.7834068,36.3443806 L71.5142999,36.2991024 C71.4381016,36.2283619 71.457881,36.0530554 71.5142999,36 C72.0498328,36.0176851 72.434101,36.025995 72.8405317,36.025995 C73.2085355,36.025995 73.5727265,36.0176851 73.9485944,36 C74.0073368,36.0530554 74.0262821,36.2283619 73.9485944,36.2991024 L73.770282,36.3350054 C73.5139841,36.3870487 73.3237564,36.4405835 73.2355832,36.6278754 C73.1238774,36.85677 73.0875357,37.5293909 73.0875357,38.2436144 L73.0875357,39.2309454 C73.0875357,40.0637979 72.9994221,40.8222343 72.4542379,41.3622167 C72.0196275,41.7794153 71.2979182,42 70.4993552,42 C69.747381,42 69.07655,41.8938892 68.5442343,41.5063079 C68.0275871,41.1250122 67.8088224,40.4706091 67.8088224,39.5082078 L67.8088224,37.2978861 L67.8088224,37.2978861 Z" id="Path"></path>
                <path d="M79.758237,37.478826 C79.758237,36.5820008 79.7401879,36.482702 79.3606141,36.429375 L79.1171693,36.3929222 C79.0271959,36.3496007 79.0271959,36.1256918 79.135762,36.0808019 C79.8129278,36.035912 80.516406,36 81.371942,36 C82.1385919,36 82.7977085,36.1156862 83.1385203,36.3216391 C83.6641175,36.6269448 83.931972,37.0758442 83.931972,37.6504895 C83.931972,38.448016 83.3917507,38.7876111 82.9779272,38.9946997 C82.8879538,39.041699 82.8879538,39.0950261 82.9328046,39.1927563 C83.5266294,40.3948872 83.8977223,41.0688312 84.331715,41.4380104 C84.5655916,41.6255206 84.8002293,41.6767384 84.9342925,41.6889073 C85.0146978,41.7332564 85.0146978,41.8679803 84.9698469,41.9207666 C84.8259982,41.9841533 84.5387355,42 84.2600081,42 C83.4280663,42 82.9048612,41.704754 82.5093586,41.0572031 C82.218671,40.583425 82.0129552,40.1445312 81.8051193,39.6676161 C81.6957377,39.4283474 81.5521607,39.3538733 81.326765,39.3538733 C81.0116676,39.3538733 80.9933468,39.3723702 80.9933468,39.5513891 L80.9933468,40.654708 C80.9933468,41.480737 81.0480376,41.543637 81.4522929,41.6170293 L81.6957377,41.65981 C81.7599966,41.7046999 81.7599966,41.9207125 81.6957377,41.9735528 C81.2176552,41.9571653 80.8048646,41.9487281 80.3727203,41.9487281 C79.9204066,41.9487281 79.5238167,41.9582469 79.0539433,41.9735528 C78.9820189,41.9207125 78.9820189,41.7046999 79.0539433,41.65981 L79.2973881,41.6170293 C79.7035461,41.543637 79.758237,41.4818187 79.758237,40.654708 L79.758237,37.478826 L79.758237,37.478826 Z M80.9934011,38.6180569 C80.9934011,38.9333682 81.0202029,38.9603022 81.5521607,38.9603022 C81.8778591,38.9603022 82.0666131,38.877391 82.2391664,38.707296 C82.3923116,38.5562386 82.5641038,38.2694298 82.5641038,37.7402153 C82.5641038,36.932629 82.081509,36.4113649 81.3804772,36.4113649 C81.0117764,36.4113649 80.9934555,36.437758 80.9934555,36.8698372 L80.9934011,38.6180569 L80.9934011,38.6180569 Z" id="Shape"></path>
                <path d="M97,38.9737358 C97,40.8617797 95.5543012,42 93.4305697,42 C91.4456392,42 90,40.8535738 90,39.0405854 C90,37.3255455 91.4622667,36 93.529262,36 C95.5836824,36 97,37.2132758 97,38.9737358 M93.4483296,36.3981707 C92.2354158,36.3981707 91.5842017,37.3955312 91.5842017,38.842075 C91.5842017,39.9012152 92.0075773,41.5988501 93.6174057,41.5988501 C94.9126226,41.5988501 95.4155003,40.490213 95.4155003,39.0860578 C95.4155003,37.6027702 94.6763809,36.3981707 93.4483296,36.3981707" id="Shape"></path>
                <path d="M103.780096,42 C102.971686,42 102.469011,41.7723749 102.284656,41.6687283 C102.115116,41.4803561 102,40.8535638 102,40.2650835 C102.063027,40.1528129 102.267028,40.1446069 102.337329,40.239577 C102.513135,40.8041187 103.103739,41.5988466 103.85146,41.5988466 C104.503763,41.5988466 104.802172,41.1588585 104.802172,40.7239925 C104.802172,40.0231894 104.131974,39.6056763 103.604343,39.3478927 C102.971739,39.0324581 102.276373,38.5128143 102.276373,37.6573514 C102.267028,36.6752966 103.042996,36 104.318347,36 C104.609481,36 104.971712,36.034183 105.323537,36.1382999 C105.43759,36.1735282 105.516175,36.1908811 105.621945,36.2071885 C105.692193,36.3980696 105.780123,36.8671708 105.780123,37.4490653 C105.736317,37.5531822 105.516175,37.561336 105.437644,37.4750945 C105.288068,37.0315522 104.911075,36.3981219 104.274594,36.3981219 C103.692273,36.3981219 103.375971,36.7722529 103.375971,37.2071711 C103.375971,37.6027319 103.73714,37.9677161 104.176045,38.1933028 L104.760437,38.4965068 C105.305696,38.7818353 106,39.283081 106,40.2396292 C105.999894,41.3074028 105.111943,42 103.780096,42" id="Path"></path>
            </g>
        </g>
    </g>
</svg>