<?xml version="1.0" encoding="UTF-8"?>
<svg width="105px" height="57px" viewBox="0 0 105 57" version="1.1" xmlns="http://www.w3.org/2000/svg" xmlns:xlink="http://www.w3.org/1999/xlink">
    <title>Group 19</title>
    <defs>
        <polygon id="path-1" points="0 0 30.2564424 0 30.2564424 44.6373278 0 44.6373278"></polygon>
        <polygon id="path-3" points="0 57 105 57 105 0 0 0"></polygon>
    </defs>
    <g id="Page-1" stroke="none" stroke-width="1" fill="none" fill-rule="evenodd">
        <g id="ESTRATEGIA" transform="translate(-47.000000, -40.000000)">
            <g id="Group-19" transform="translate(47.000000, 40.000000)">
                <g id="Group-10">
                    <g id="Group-3" transform="translate(0.295380, 12.362672)">
                        <mask id="mask-2" fill="white">
                            <use xlink:href="#path-1"></use>
                        </mask>
                        <g id="Clip-2"></g>
                        <path d="M8.49505306,15.1855284 C8.50024499,15.2873416 8.51005196,15.4865496 8.52082041,15.6857576 C8.52332022,15.7318617 8.52812756,15.7777737 8.53408866,15.8233014 C8.77830154,17.7254786 9.65669873,19.2839883 11.1415899,20.4830783 C12.71609,21.7545902 14.5173042,22.3011155 16.5406175,22.0039364 C18.1489612,21.7678451 19.5103999,21.034022 20.6183957,19.8575998 C22.1873192,18.191706 22.8849604,16.2182596 22.4826822,13.9439842 C21.7663885,9.89431788 17.6245765,7.33073942 13.6604439,8.44300013 C10.6541257,9.28651254 8.49639912,12.0619776 8.49505306,15.1855284 L8.49505306,15.1855284 Z M12.9958772,44.6373854 C12.5424489,44.5632347 12.0874822,44.4975364 11.6359768,44.4135886 C8.08739062,43.7533398 5.2854805,41.9301159 3.19601819,38.9984733 C2.66105739,38.2479374 2.17840044,37.4705075 1.89303673,36.5674441 C4.62610573,34.9841534 7.3603285,33.4000944 10.1262797,31.7975937 C10.1724302,32.0121697 10.220119,32.2077278 10.2560779,32.405399 C10.7562336,35.1618462 13.1258677,36.9683574 15.9631598,36.8538656 C18.3179873,36.758776 20.3878356,35.0285286 20.9254886,32.6628134 C21.0318269,32.1952413 21.0693242,31.7071145 21.0898996,31.2264795 C21.117013,30.5898591 21.0968222,29.9513177 21.096053,29.3135448 C21.096053,29.2472702 21.0898996,29.1808035 21.0854768,29.0930136 C20.3676448,29.2989451 19.672888,29.5139054 18.9700549,29.6973611 C13.667751,31.0816359 8.95463478,29.9226948 4.87531825,26.3092882 C2.26724008,23.998898 0.684856008,21.0672553 0.186430984,17.6155972 C-0.435638828,13.3090927 0.482178548,9.35490024 3.19390296,5.8969028 C5.25432894,3.26935495 7.95855391,1.59116676 11.1796641,0.75111216 C14.6982525,-0.166743057 18.1818434,0.0662746023 21.6288986,1.14664667 C21.694663,1.1672014 21.7606197,1.18660353 21.8271533,1.20427676 C21.8406138,1.20773456 21.8567665,1.20024265 21.8933023,1.19428754 L21.8933023,0 L30.2564424,0 L30.2564424,0.248961984 C30.2564424,6.60325559 30.2569203,12.9575492 30.2559589,19.3118428 C30.2555743,21.6399063 30.2564424,23.9679698 30.2471134,26.2958412 C30.2392293,28.2775479 30.2564424,30.260215 30.1936557,32.2401928 C30.0967398,35.3078424 29.156424,38.0712052 27.0231188,40.3491305 C25.3645864,42.1197189 23.3531953,43.3455109 21.0254812,44.0176699 C20.1226628,44.27835 19.181001,44.4041757 18.2572225,44.5930102 C18.2247249,44.5997338 18.1954963,44.6222095 18.1647293,44.6373854 L12.9958772,44.6373854 Z" id="Fill-1" fill="#294EFA" mask="url(#mask-2)"></path>
                    </g>
                    <path d="M33.8207146,13.0002915 L43.3815526,13.0002915 L43.3815526,13.2761475 C43.3815526,18.6926075 43.3817449,24.1090675 43.381168,29.5255274 C43.3809758,30.6235727 43.3738609,31.721618 43.6099974,32.8035269 C43.7830617,33.5965169 44.0732327,34.3295717 44.6758809,34.9033752 C45.3823676,35.5761105 46.2561497,35.7929917 47.1966578,35.7879971 C48.0106366,35.7837709 48.8053861,35.671008 49.5080269,35.2072779 C50.3729635,34.6361637 50.8150465,33.7897698 50.9863801,32.8079452 C51.1057944,32.1231076 51.1777123,31.4209811 51.1802121,30.7263464 C51.2004029,24.92607 51.1994414,19.1257937 51.2050179,13.3255173 C51.2050179,13.2277383 51.2050179,13.1299592 51.2050179,13.0208463 L60.7352813,13.0208463 C60.749511,13.1362985 60.7781628,13.2611637 60.7781628,13.3860289 C60.7804703,18.9408011 60.7875852,24.4955733 60.7739323,30.0503454 C60.7712402,31.1693297 60.7545107,32.2958058 60.6283661,33.4055692 C60.3510787,35.8460114 59.5934419,38.1189421 58.0147114,40.0574262 C56.5963537,41.7988154 54.7478353,42.8880241 52.6358747,43.5705564 C50.6052542,44.226771 48.5229067,44.5327868 46.3917167,44.4004297 C43.7836386,44.2384891 41.2926672,43.6337574 39.0476394,42.2393014 C36.7879972,40.8360087 35.3444491,38.8018587 34.5700828,36.2824633 C34.0805033,34.6897597 33.8197531,33.0586361 33.8259065,31.3865951 C33.8332137,29.3968202 33.8239836,27.4070454 33.8205223,25.4170784 C33.8166764,23.2816915 33.807251,21.1463046 33.807251,19.0109177 C33.807251,17.075123 33.8159073,15.1393283 33.8207146,13.2035336 C33.8209069,13.1432141 33.8207146,13.0828946 33.8207146,13.0002915" id="Fill-4" fill="#294EFA"></path>
                    <path d="M82.4985331,20.4021465 C81.737435,20.5064569 80.9767215,20.61192 80.2158157,20.7148858 C78.4592136,20.9525138 76.7912589,21.4327646 75.3430957,22.5058368 C73.5843784,23.8092373 72.5413779,25.5629209 72.1933265,27.7046471 C72.0402608,28.6468991 71.9866109,29.6135478 71.9798806,30.5698231 C71.9489213,34.9105214 71.9508443,39.2516039 71.940845,43.5924943 C71.940845,43.6681818 71.940845,43.7440614 71.940845,43.8362695 L63.6133781,43.8362695 L63.6133781,12.960181 L71.9000787,12.960181 L71.9000787,17.009271 C74.6889129,13.6755625 78.3288385,12.4192265 82.4985331,12.3381602 L82.4985331,20.4021465 Z" id="Fill-6" fill="#294EFA"></path>
                    <mask id="mask-4" fill="white">
                        <use xlink:href="#path-3"></use>
                    </mask>
                    <g id="Clip-9"></g>
                    <polygon id="Fill-8" fill="#294EFA" mask="url(#mask-4)" points="85.3529778 43.7137672 93.7696689 43.7137672 93.7696689 12.7306788 85.3529778 12.7306788"></polygon>
                </g>
                <path d="M43,5 C43,7.76142857 40.7614286,10 38,10 C35.2385714,10 33,7.76142857 33,5 C33,2.23857143 35.2385714,0 38,0 C40.7614286,0 43,2.23857143 43,5" id="Fill-11" fill="#294EFA"></path>
                <path d="M61,5 C61,7.76142857 58.7614286,10 56,10 C53.2385714,10 51,7.76142857 51,5 C51,2.23857143 53.2385714,0 56,0 C58.7614286,0 61,2.23857143 61,5" id="Fill-13" fill="#294EFA"></path>
                <path d="M95,5 C95,7.76142857 92.7614286,10 90,10 C87.2385714,10 85,7.76142857 85,5 C85,2.23857143 87.2385714,0 90,0 C92.7614286,0 95,2.23857143 95,5" id="Fill-15" fill="#294EFA"></path>
                <path d="M105,39 C105,41.7614286 102.761429,44 100,44 C97.2385714,44 95,41.7614286 95,39 C95,36.2385714 97.2385714,34 100,34 C102.761429,34 105,36.2385714 105,39" id="Fill-17" fill="#FFE26C"></path>
            </g>
        </g>
    </g>
</svg>